<svg fill="#F9F9F9" xmlns="http://www.w3.org/2000/svg"  viewBox="0 0 50 50" width="50px" height="50px"><path d="M 1 19 A 1.0001 1.0001 0 1 0 1 21 L 12.5 21 C 13.340812 21 14 21.659188 14 22.5 C 14 23.340812 13.340812 24 12.5 24 L 3 24 C 1.3550302 24 0 25.35503 0 27 L 0 30 A 1.0001 1.0001 0 1 0 2 30 L 2 27 C 2 26.43497 2.4349698 26 3 26 L 12.5 26 C 14.28508 26 15.719786 24.619005 15.921875 22.884766 A 1.0001 1.0001 0 0 0 16 22.5 C 16 20.578812 14.421188 19 12.5 19 L 1 19 z M 26 19 C 24.35503 19 23 20.35503 23 22 L 23 28 C 23 28.56503 22.56503 29 22 29 L 16 29 A 1.0001 1.0001 0 1 0 16 31 L 22 31 C 23.64497 31 25 29.64497 25 28 L 25 22 C 25 21.43497 25.43497 21 26 21 L 32 21 A 1.0001 1.0001 0 1 0 32 19 L 26 19 z M 46.970703 19 A 1.0001 1.0001 0 0 0 46.503906 19.130859 L 32.503906 27.130859 A 1.0001 1.0001 0 0 0 33 29 L 46 29 L 46 30 A 1.0001 1.0001 0 1 0 48 30 L 48 29 L 49 29 A 1.0001 1.0001 0 1 0 49 27 L 48 27 L 48 20 A 1.0001 1.0001 0 0 0 46.970703 19 z M 46 21.724609 L 46 27 L 36.767578 27 L 46 21.724609 z"/></svg>